<svg xmlns="http://www.w3.org/2000/svg" width="256" height="256"><path fill-opacity=".016" d="M0 128.004v128.004l128.25-.254 128.25-.254.254-127.75L257.008 0H0v128.004m.485.496c0 70.4.119 99.053.265 63.672.146-35.38.146-92.98 0-128C.604 29.153.485 58.1.485 128.5" fill="#1976D2" fill-rule="evenodd"/><path fill-opacity=".123" d="M0 128v62h13.392l-4.641-2.943c-2.552-1.619-5.335-4.285-6.183-5.926-1.522-2.943-1.498-3.011 1.813-5.057C6.226 174.933 7.975 174 8.268 174c.293 0 2.072 1.54 3.953 3.421 7.522 7.522 19.779 5.123 19.779-3.87 0-4.215-3.169-6.818-13.5-11.091-12.098-5.003-16.639-11.476-14.55-20.737 1.284-5.693 3.697-8.652 9.099-11.154l4.896-2.269-4.008-1.201C10.087 125.946 1 118.399 1 116.356c0-.543 1.779-1.987 3.952-3.209l3.953-2.221 3.383 3.691c2.932 3.2 4.103 3.75 8.797 4.135 7.03.577 10.915-2.047 10.915-7.372 0-4.683-3.109-7.393-13.103-11.422-9.162-3.693-13.394-7.375-14.899-12.964-2.14-7.951 3.031-17.69 10.596-19.953 2.198-.657.775-.89-5.844-.955L0 66v62m28.236-61.004C32.248 68.204 38 71.973 38 73.394c0 .678-1.347 2.522-2.993 4.1l-2.994 2.867-2.444-2.296c-1.51-1.419-4.16-2.49-6.931-2.802-3.857-.435-4.847-.145-7.062 2.07-3.174 3.174-3.295 6.663-.326 9.37 1.237 1.129 6.653 4.148 12.035 6.709 7.317 3.481 10.281 5.467 11.747 7.872 6.001 9.838 2.443 21.198-7.94 25.348l-5.335 2.133 3.424 1.13c1.883.621 4.896 2.362 6.695 3.867l3.27 2.738-3.071 2.935-3.071 2.935-3.888-2.185C21.597 135.96 13 138.232 13 144.444c0 3.903 3.866 7.142 13.251 11.102 9.766 4.12 14.236 8.201 15.321 13.988 1.443 7.688-1.103 13.82-7.562 18.216L30.704 190h27.353l-.278-30.001-.279-30h17.25L92 130v8H67v17h22v9H66.922l.289 8.75.289 8.75h24.502l-.001 4.25L92 190h18v-60h14.099c16.286 0 19.542.989 23.639 7.181 3.643 5.504 4.039 12.063 1.077 17.819-2.093 4.069-3.59 5.287-10.634 8.653-.176.083 3.607 6.046 8.406 13.25L155.311 190h13.345c7.339 0 13.344-.212 13.344-.472s-4.725-13.568-10.5-29.575c-5.775-16.007-10.5-29.295-10.5-29.528 0-.234 2.363-.423 5.25-.422l5.25.004 8 23.49c4.4 12.92 8.225 23.489 8.5 23.488.275-.001 4.08-10.573 8.456-23.493L204.412 130h5.294c2.912 0 5.294.181 5.294.403 0 .221-4.725 13.368-10.5 29.215S194 188.784 194 189.216c0 .431 5.85.784 13 .784h13v-17h16v17h20V66l-115.25.086c-63.388.047-114.019.457-112.514.91M58 96.5c0 16.225-.007 29.838-.015 30.25-.008.412 2.017.887 4.5 1.055l4.515.305V67h-9v29.5m29 .994v30.598l4.5-.233 4.5-.233v-20.513c0-12.69.355-20.151.932-19.563.513.522 4.635 9.275 9.161 19.45 4.526 10.175 8.662 19.063 9.191 19.75.528.688 2.169 1.25 3.645 1.25 2.522 0 3.215-1.188 11.532-19.75 4.866-10.862 9.229-20.178 9.694-20.7.465-.523.845 8.301.845 19.607v20.557h9V66.895l-5.069.303-5.069.302L129.813 90c-5.527 12.375-10.374 22.855-10.771 23.29-.397.434-5.43-9.691-11.184-22.5L97.397 67.5l-5.199-.302L87 66.895v30.599m83 .082v30.577l4.25-.305 4.25-.304.5-13.022.5-13.022 10.5-.5c9.011-.429 10.977-.84 13.867-2.901 3.769-2.688 7.089-9.057 7.089-13.599 0-3.84-3.011-10.376-6.074-13.183-3.951-3.622-7.406-4.317-21.447-4.317H170v30.576M224 97v30h31v-8.856l-10.25.017-10.25.016-.267-25.589L233.966 67H224v30m-45-12.5V93h8.545c7.74 0 8.777-.231 11-2.455C200.24 88.851 201 86.979 201 84.5s-.76-4.351-2.455-6.045c-2.223-2.224-3.26-2.455-11-2.455H179v8.5m-60 63v8.5h8.365c10.659 0 13.635-1.833 13.635-8.398 0-6.908-2.622-8.602-13.314-8.602H119v8.5m.667 17.167c-.367.366-.667 6.216-.667 13V190h25.23l-1.461-2.25c-.803-1.238-4.491-7.088-8.195-13-6.616-10.561-6.801-10.75-10.488-10.75-2.064 0-4.053.3-4.419.667" fill="#1976D2" fill-rule="evenodd"/><path fill-opacity=".323" d="M0 128v62h12.3l-4.044-2.929C4.379 184.262 1 180.406 1 178.79c0-.421 1.868-1.944 4.15-3.385 3.812-2.406 4.229-2.479 5.113-.9 1.851 3.308 4.664 5.398 8.743 6.497 7.886 2.123 15.316-4.295 12.045-10.406-1.295-2.42-2.807-3.308-16.376-9.621-4.647-2.161-7.439-4.18-8.747-6.325-5.701-9.345-2.42-20.289 7.402-24.686l3.912-1.752-3.143-.69c-3.976-.874-13.663-9.61-12.89-11.625.308-.801 2.143-2.31 4.078-3.352l3.518-1.895 3.385 3.59c7.045 7.47 19.81 5.439 19.81-3.151 0-3.823-3.831-7.011-12.655-10.531C7.6 95.874 3 90.861 3 82.744c0-5.241 3.916-11.909 8.5-14.473l4-2.238-7.75-.017L0 66v62m29.97-60.887c3.104 1.238 9.03 5.714 9.03 6.819 0 .457-1.581 2.037-3.514 3.511l-3.514 2.68-2.587-2.035c-3.741-2.942-8.522-3.586-12.264-1.651C14.434 77.827 14 78.595 14 81.958c0 4.61 1.753 6.101 12.365 10.511C38.04 97.322 42 102.015 42 111c0 8.03-3.961 13.706-11.35 16.264l-3.76 1.302 3.873 1.709c2.131.94 4.853 2.752 6.05 4.026l2.177 2.317-3.484 3.376-3.483 3.376-2.413-2.267c-3.228-3.032-9.766-3.886-13.089-1.709-1.886 1.236-2.521 2.519-2.521 5.09 0 4.543 2.399 6.646 11.992 10.513 7.88 3.176 13.513 7.571 15.119 11.795 1.489 3.916 1.008 11.514-.963 15.224-1.018 1.916-3.335 4.496-5.147 5.734L31.704 190h25.267l.264-30.25.265-30.25h35v9l-12.792.28-12.791.28.291 7.72.292 7.72 10.75.284 10.75.284v8.864l-10.75.284-10.75.284-.29 8.22-.29 8.22 12.79.28 12.79.28.307 4.25.308 4.25h15.856l.264-30.25.265-30.25 12.5-.307c13.86-.34 18.341.54 23.091 4.537 3.971 3.341 5.909 7.864 5.909 13.788 0 6.804-3.256 11.776-10.485 16.009-1.568.917-.866 2.376 6.614 13.75L155.497 190h13.252c7.288 0 13.243-.113 13.234-.25-.01-.137-4.898-13.625-10.862-29.972s-10.607-29.959-10.316-30.25c.291-.29 2.726-.528 5.413-.528 5.801 0 4.541-2.338 14.411 26.74 3.779 11.132 7.096 20.244 7.371 20.249.275.006 3.564-9.102 7.309-20.239 9.647-28.69 8.585-26.75 14.643-26.75 3.665 0 5.048.384 5.048 1.403 0 .771-4.725 14.368-10.5 30.215S194 189.559 194 189.716c0 .156 5.625.284 12.5.284H219v-17h18v17h19l.001-31.25.002-31.25-16.002.298-16.001.297V67h10v51h22V66l-114.25.063c-76.138.043-113.426.393-111.78 1.05M57 97.5V128h10V67H57v30.5m29.235-.25.265 30.25 5.25.302 5.25.303.024-20.303.023-20.302 4.024 9c2.213 4.95 6.317 14.086 9.12 20.302l5.096 11.302 3.454-.302 3.454-.302 8.653-19.176c4.758-10.547 8.99-19.509 9.402-19.917.412-.407.75 8.335.75 19.426V128h10V66.9l-5.723.3-5.723.3-7.032 15.5a6201.513 6201.513 0 0 0-10.355 22.933c-2.448 5.475-3.559 7.056-4.218 6-.492-.788-5.271-11.22-10.62-23.183L97.604 67H85.971l.264 30.25m82.765.302v30.553l5.25-.303 5.25-.302.28-12.75.28-12.75 8.22-.022c8.991-.024 14.515-1.854 18.403-6.096 7.297-7.96 4.846-22.021-4.686-26.884C198.612 67.272 196.102 67 183.54 67H169v30.552m11-12.946v8.606l7.924-.36c6.721-.305 8.314-.727 10.5-2.78 1.709-1.606 2.565-3.456 2.544-5.496-.063-6.137-4.017-8.576-13.902-8.576H180v8.606M120 147.5v8.5h7.05c7.369 0 12.219-1.654 13.329-4.545 1.335-3.479.582-7.585-1.834-10-2.199-2.2-3.291-2.455-10.5-2.455H120v8.5m0 29.943V190h11.5c6.325 0 11.491-.338 11.48-.75-.011-.412-3.322-5.925-7.359-12.25-7.274-11.397-7.376-11.503-11.48-11.807l-4.141-.308v12.558" fill="#1976D2" fill-rule="evenodd"/><path fill-opacity=".631" d="M0 90.5c0 13.475.235 24.5.521 24.5.287 0 2.357-1.214 4.6-2.699 3.727-2.466 4.16-2.551 5.036-.984 4.461 7.97 17.23 9.537 20.59 2.525 2.29-4.779.26-7.518-8.497-11.465-11.607-5.231-11.86-5.38-15.386-9.017-2.847-2.937-3.32-4.182-3.655-9.617-.326-5.297-.026-6.77 1.977-9.719 1.299-1.912 3.88-4.5 5.736-5.75L14.296 66H0v24.5m31.645-22.903c1.73.853 4.184 2.657 5.453 4.008l2.308 2.456-3.625 3.624-3.624 3.625-3.155-2.655C23.02 73.622 14 75.726 14 82.154c0 3.427 3.428 6.35 11.054 9.429 12.011 4.85 15.979 8.604 17.443 16.508 1.464 7.898-4.433 17.857-11.491 19.408l-3.112.683 5.29 3.161c2.909 1.739 5.433 3.906 5.608 4.816.185.961-1.159 2.782-3.207 4.344l-3.525 2.689-2.632-2.07c-3.454-2.717-8.594-3.634-11.573-2.064-3.046 1.605-3.821 2.841-3.84 6.119-.02 3.472 3.14 5.922 12.241 9.493 4.015 1.575 8.784 4.355 10.845 6.321 7.614 7.262 7.578 17.964-.085 25.259L33.077 190H57v-61h36v10H68v16h22.11l-.305 4.75-.305 4.75-10.75.284-10.75.284V181h25v9h16V128.859l15.328.321c14.661.306 15.502.436 19.343 2.981 4.345 2.878 7.26 7.907 8.066 13.912.742 5.533-2.868 12.42-8.325 15.881l-4.299 2.726 8.455 12.66 8.455 12.66h12.489c6.868 0 12.488-.406 12.488-.903 0-.496-4.725-13.868-10.5-29.715S160 130.216 160 129.784c0-.431 2.649-.784 5.887-.784h5.888l4.627 13.25c2.546 7.287 6.144 17.75 7.997 23.25 3.973 11.793 2.536 13.626 12.548-16l6.759-20 6.147-.298c3.381-.163 6.147-.067 6.147.215 0 .462-18.316 51.174-20.888 57.833L194.05 190H219v-17h18v17.072l9.75-.286 9.75-.286.305-11.5c.167-6.325.001-34.113-.369-61.75L255.762 66l-10.631-.001H234.5l.282 26 .283 26.001H256v10h-32V66l-13.75.039c-13.169.038-13.602.103-10.257 1.554 7.454 3.233 11.293 9.051 11.293 17.119 0 4.011-.627 6.205-2.644 9.253-4.032 6.093-8.77 8.035-19.602 8.035H180v26h-11.056l.278-31.001.278-31h-9.25L151 66v62h-10.957l-.271-19.106-.272-19.106-8.5 19.126-8.5 19.125-3.963-.269-3.963-.27L105.8 108l-8.774-19.5-.013 19.75L97 128H85.944l.278-31.001.278-31h-19l.278 31L68.056 128H57V66l-14.25.023c-13.57.021-14.1.097-11.105 1.574m66.942 1.153c.821 1.513 5.687 12.106 10.812 23.541l9.319 20.792 2.075-4.792c1.142-2.635 5.897-13.228 10.566-23.541L139.85 66H97.093l1.494 2.75m81.412 15.372-.001 8.378 8.468-.5c9.774-.577 11.934-1.936 11.934-7.508 0-5.841-2.816-7.731-12.34-8.282l-8.06-.467-.001 8.379M1 147.465c0 16.244.337 29.525.75 29.513.413-.012 1.875-.902 3.25-1.978 3.298-2.58 4.447-2.494 6.394.479 2.507 3.826 7.224 5.824 12.375 5.244 5.321-.6 7.564-2.576 7.564-6.662 0-4.293-2.456-6.513-11.196-10.122C7.022 158.524 3 154.185 3 145.451c0-6.409 2.54-11.203 7.652-14.446l4.297-2.724-4.024-1.815c-2.213-.998-5.351-3.326-6.974-5.175L1 117.93v29.535m119-.071V156l5.25-.006c13.464-.014 19.648-6.351 13.347-13.676-2.198-2.555-3.097-2.826-10.5-3.162l-8.097-.368v8.606m0 30.106V190h11.559c8.955 0 11.401-.282 10.856-1.25-.386-.687-3.864-6.312-7.729-12.5-6.966-11.151-7.061-11.25-10.857-11.25H120v12.5M1 185.277V190l5.25-.052 5.25-.053-2.5-1.697c-1.375-.934-3.737-3.036-5.25-4.671L1 180.554v4.723" fill="#1976D2" fill-rule="evenodd"/></svg>